#!OML:ASF F:\VICON\USERDATA\INSTALL\rory3\rory3.ASF
:FULLY-SPECIFIED
:DEGREES
362
root -1.08893 18.0799 -4.30527 -164.417 -1.43558 -173.928
lowerback 0.446334 0.833231 2.94563
upperback -6.85969 0.844732 3.76941
thorax -7.42523 0.0960638 2.28432
lowerneck -15.281 2.57052 -0.538527
upperneck 38.7867 0.0265286 -0.728226
head 16.518 -1.62812 -0.652563
rclavicle 2.48481e-017 2.98177e-014
rhumerus -341.772 -81.1334 336.483
rradius 14.3692
rwrist 64.8576
rhand -36.5522 395.098
rfingers 7.12502
rthumb -9.64261 5.33882
lclavicle 2.48481e-017 2.98177e-014
lhumerus -8.32273 18.9503 0.0190899
lradius 17.895
lwrist -38.9772
lhand -32.263 19.452
lfingers 7.12502
lthumb -5.50266 49.3605
rfemur 105.843 -141.446 -143.07
rtibia 101.303
rfoot 30.1008 -41.9842
rtoes 53.4545
lfemur -29.0238 -0.181399 -21.1985
ltibia 43.0571
lfoot -5.60865 26.0678
ltoes 17.4237
363
root -1.06324 18.0285 -4.35799 -164.126 -0.781285 -173.813
lowerback 1.02396 0.0911973 2.91947
upperback -6.64536 1.13454 3.84593
thorax -7.56693 0.783245 2.28314
lowerneck -15.5057 2.60373 -0.332906
upperneck 38.3642 0.351462 -1.2004
head 16.3559 -1.47897 -0.816875
rclavicle 3.55328e-015 -7.95139e-015
rhumerus -350.793 -81.6717 343.661
rradius 14.1975
rwrist 65.6807
rhand -37.1865 400.265
rfingers 7.12502
rthumb -10.2546 10.5347
lclavicle 3.55328e-015 -7.95139e-015
lhumerus -10.7428 17.9274 0.932463
lradius 18.0092
lwrist -38.5479
lhand -31.1195 19.6322
lfingers 7.12502
lthumb -4.39857 49.5665
rfemur 106.511 -145.844 -143.428
rtibia 97.6842
rfoot 39.1142 -31.0456
rtoes 43.3278
lfemur -29.2004 0.134151 -21.2613
ltibia 43.631
lfoot -6.27268 25.8787
ltoes 13.0975
364
root -1.05661 17.9759 -4.42304 -164.079 -0.843967 -173.658
lowerback 1.78852 -0.0403592 3.44572
upperback -6.50498 0.989477 3.81981
thorax -7.85392 0.661701 1.96993
lowerneck -15.8173 -1.90461 0.667462
upperneck 37.9336 2.44204 -3.28113
head 16.2878 2.03988 -0.705604
rclavicle 2.21148e-015 -2.54444e-014
rhumerus -362.507 -77.7822 353.335
rradius 14.2027
rwrist 62.3672
rhand -37.5042 401.196
rfingers 7.12502
rthumb -10.561 11.4809
lclavicle 2.21148e-015 -2.54444e-014
lhumerus -13.2365 15.7145 2.14489
lradius 18.4086
lwrist -36.571
lhand -29.6816 20.0082
lfingers 7.12502
lthumb -3.00994 49.9667
rfemur 107.72 -148.817 -143.937
rtibia 93.9298
rfoot 41.1916 -24.9366
rtoes 37.2307
lfemur -28.9383 0.15342 -21.2124
ltibia 44.1307
lfoot -7.22436 25.4995
ltoes 8.08176
365
root -1.05534 17.9133 -4.48092 -163.957 -1.02392 -173.367
lowerback 2.4182 0.532252 4.26531
upperback -6.34365 0.699991 3.71266
thorax -8.00572 -0.0227885 1.49079
lowerneck -15.9315 -1.71222 0.769103
upperneck 37.3225 2.5185 -3.436
head 16.0073 1.99471 -0.794301
rclavicle 5.06901e-015 8.34896e-015
rhumerus -368.33 -72.3269 356.888
rradius 14.2191
rwrist 57.5801
rhand -37.2762 399.702
rfingers 7.12502
rthumb -10.3411 9.97645
lclavicle 5.06901e-015 8.34896e-015
lhumerus -15.4844 15.1731 3.55093
lradius 18.5448
lwrist -35.8141
lhand -28.3265 20.1475
lfingers 7.12502
lthumb -1.70122 50.1204
rfemur 108.655 -151.495 -144.215
rtibia 90.075
rfoot 40.3246 -22.0558
rtoes 32.3545
lfemur -28.7166 -0.00324063 -20.9996
ltibia 44.5336
lfoot -9.33483 25.2242
ltoes 4.87454
366
root -1.01866 17.8395 -4.56383 -163.79 -0.212771 -173.828
lowerback 2.73089 -0.00521961 3.50881
upperback -6.02828 0.94948 3.54413
thorax -7.8779 0.583485 1.64451
lowerneck -15.9895 -1.49006 0.961722
upperneck 36.7289 2.64196 -3.60798
head 15.7306 1.98903 -0.89442
rclavicle 4.42296e-015 -1.03368e-014
rhumerus -374.959 -73.5883 361.373
rradius 14.0178
rwrist 60.1216
rhand -35.8115 400.739
rfingers 7.12502
rthumb -8.9279 10.9477
lclavicle 4.42296e-015 -1.03368e-014
lhumerus -17.6454 14.7397 5.10316
lradius 18.7981
lwrist -34.9452
lhand -26.6883 20.4738
lfingers 7.12502
lthumb -0.119065 50.4535
rfemur 109.375 -155.28 -145.525
rtibia 86.2872
rfoot 39.8509 -20.6332
rtoes 28.0112
lfemur -28.4119 0.416572 -21.696
ltibia 44.8517
lfoot -10.9647 25.3185
ltoes 0.861715
367
root -0.997112 17.7592 -4.66524 -164.002 0.712158 -173.621
lowerback 3.4569 0.157475 3.6608
upperback -5.818 1.14678 3.34572
thorax -8.06816 0.639988 1.3283
lowerneck -15.9419 -1.2527 1.24421
upperneck 36.2949 2.72923 -3.5595
head 15.5073 2.02934 -0.918453
rclavicle -9.44227e-016 3.53837e-014
rhumerus -379.519 -71.6028 363.301
rradius 13.9212
rwrist 59.535
rhand -34.2946 399.373
rfingers 7.12502
rthumb -7.4639 9.52517
lclavicle -9.44227e-016 3.53837e-014
lhumerus -20.3119 8.55801 7.60603
lradius 20.52
lwrist -28.5877
lhand -24.7528 22.5349
lfingers 7.12502
lthumb 1.7503 52.5075
rfemur 110.825 -159.004 -146.492
rtibia 82.3611
rfoot 38.2198 -20.6914
rtoes 26.3826
lfemur -27.6303 1.11123 -21.7799
ltibia 45.2049
lfoot -12.0903 25.3858
ltoes -4.18912
368
root -1.0025 17.6552 -4.73358 -163.731 0.25402 -173.54
lowerback 3.71703 -8.24908e-005 4.47039
upperback -5.3807 0.934666 3.21985
thorax -7.73857 0.470112 0.762879
lowerneck -17.189 -1.0707 1.03355
upperneck 35.871 2.63098 -3.27213
head 15.5854 1.88086 -0.794728
rclavicle -4.07509e-015 -3.61788e-014
rhumerus -380.837 -66.9924 361.944
rradius 13.8671
rwrist 54.6641
rhand -32.6158 396.503
rfingers 7.12502
rthumb -5.84332 6.60351
lclavicle -4.07509e-015 -3.61788e-014
lhumerus -22.1608 9.26738 9.67284
lradius 20.3747
lwrist -28.8796
lhand -23.5693 22.6105
lfingers 7.12502
lthumb 2.89329 52.5706
rfemur 111.29 -160.792 -146.946
rtibia 78.5694
rfoot 35.5735 -21.3501
rtoes 26.5391
lfemur -27.5257 0.897327 -21.8454
ltibia 45.5174
lfoot -13.6515 24.1762
ltoes -7.90524
369
root -0.976959 17.5568 -4.82023 -163.616 0.88355 -173.125
lowerback 3.96591 0.138807 4.7864
upperback -4.83213 1.08027 3.18351
thorax -7.28441 0.513203 0.530095
lowerneck -18.2117 -0.727452 1.26444
upperneck 35.2948 2.73971 -3.27981
head 15.5523 1.84674 -0.837221
rclavicle -2.98177e-016 -5.36719e-015
rhumerus -381.743 -63.2331 359.844
rradius 13.8324
rwrist 50.0344
rhand -30.5726 393.68
rfingers 7.12502
rthumb -3.87045 3.7359
lclavicle -2.98177e-016 -5.36719e-015
lhumerus -24.0059 10.2288 11.39
lradius 19.347
lwrist -30.7107
lhand -24.025 20.7108
lfingers 7.12502
lthumb 2.45325 50.6765
rfemur 112.421 -164.109 -147.476
rtibia 74.4598
rfoot 28.6223 -29.0553
rtoes 38.3732
lfemur -27.1768 1.34969 -21.5938
ltibia 45.7805
lfoot -15.2925 24.3091
ltoes -11.8126
370
root -0.960729 17.4744 -4.9152 -163.412 1.32384 -172.967
lowerback 3.9991 0.188628 5.05428
upperback -4.33207 1.08177 3.01386
thorax -6.75935 0.488605 0.201516
lowerneck -19.0577 -0.339922 1.48585
upperneck 34.5884 2.89579 -3.2437
head 15.4169 1.84225 -0.849399
rclavicle -5.59082e-015 -3.4191e-014
rhumerus -384.332 -63.3375 359.56
rradius 13.4973
rwrist 48.9275
rhand -28.5418 390.73
rfingers 7.12502
rthumb -1.90919 0.758771
lclavicle -5.59082e-015 -3.4191e-014
lhumerus -25.5218 11.1847 13.371
lradius 18.9223
lwrist -31.049
lhand -22.688 20.8692
lfingers 7.12502
lthumb 3.74444 50.816
rfemur 112.865 -166.83 -148.157
rtibia 70.0477
rfoot 29.283 -26.8669
rtoes 30.9299
lfemur -26.723 1.66843 -21.639
ltibia 45.8424
lfoot -17.5207 23.8792
ltoes -15.8382
371
root -0.949739 17.3812 -5.00834 -163.2 1.43459 -172.838
lowerback 4.02915 0.161536 5.44309
upperback -3.93618 1.01307 2.8766
thorax -6.34976 0.431685 -0.152782
lowerneck -19.5974 -0.112981 1.47069
upperneck 33.9025 2.84019 -2.92895
head 15.2062 1.7778 -0.739412
rclavicle 2.127e-014 2.82274e-014
rhumerus -387.726 -64.3978 360.367
rradius 12.958
rwrist 48.7364
rhand -26.3346 387.442
rfingers 7.12502
rthumb 0.22253 -2.53808
lclavicle 2.127e-014 2.82274e-014
lhumerus -26.8384 13.1223 15.2266
lradius 18.1967
lwrist -32.7614
lhand -21.6368 20.5848
lfingers 7.12502
lthumb 4.75951 50.5113
rfemur 113.475 -169.015 -148.825
rtibia 65.6369
rfoot 26.5076 -28.7548
rtoes 32.1534
lfemur -26.161 1.6089 -21.6362
ltibia 45.7314
lfoot -19.6252 23.4997
ltoes -15.9539
372
root -0.943477 17.2849 -5.11025 -163.019 1.38552 -172.623
lowerback 4.01691 0.0702349 6.02976
upperback -3.59787 0.880131 2.73158
thorax -5.98257 0.339947 -0.618738
lowerneck -19.897 0.168599 1.65191
upperneck 33.0427 2.84159 -2.74161
head 14.8712 1.75062 -0.708485
rclavicle 9.01985e-015 -1.59028e-015
rhumerus -387.463 -61.1128 356.871
rradius 12.597
rwrist 43.6533
rhand -24.5148 383.476
rfingers 7.12502
rthumb 1.98014 -6.49448
lclavicle 9.01985e-015 -1.59028e-015
lhumerus -28.0357 12.9058 17.8094
lradius 17.7976
lwrist -32.5881
lhand -20.6965 20.8039
lfingers 7.12502
lthumb 5.66741 50.7081
rfemur 114.297 -170.918 -149.524
rtibia 61.2189
rfoot 21.7615 -31.4054
rtoes 36.4468
lfemur -25.4313 1.45441 -21.527
ltibia 45.3498
lfoot -21.0574 23.5921
ltoes -17.5969
373
root -0.9423 17.1885 -5.21909 -162.805 1.26976 -172.473
lowerback 3.71713 0.0164709 6.70532
upperback -3.13634 0.760896 2.52369
thorax -5.32235 0.263079 -1.19947
lowerneck -20.5006 0.423239 1.87403
upperneck 32.2233 2.80523 -2.62662
head 14.6317 1.69487 -0.720821
rclavicle 8.13775e-015 3.77691e-014
rhumerus -386.885 -57.7878 352.802
rradius 12.2901
rwrist 37.4045
rhand -23.5409 378.277
rfingers 7.12502
rthumb 2.9207 -11.6826
lclavicle 8.13775e-015 3.77691e-014
lhumerus -28.9063 11.757 21.0708
lradius 17.8524
lwrist -31.2049
lhand -19.3233 21.4264
lfingers 7.12502
lthumb 6.99306 51.2909
rfemur 114.867 -172.451 -150.186
rtibia 56.8071
rfoot 19.7317 -31.9931
rtoes 36.0303
lfemur -24.6455 1.32179 -21.4973
ltibia 44.8146
lfoot -21.9545 23.8968
ltoes -20.9248
